HIERARCHY
ROOT Hips
{
	OFFSET 0.000000 0.000000 0.000000
	CHANNELS 6 Xposition Yposition Zposition Xrotation Yrotation Zrotation
	JOINT LeftUpLeg
	{
		OFFSET 3.317160 0.000000 0.000000
		CHANNELS 6 Xposition Yposition Zposition Xrotation Yrotation Zrotation
		JOINT LeftLeg
		{
			OFFSET 0.000000 -16.621309 0.000000
			CHANNELS 6 Xposition Yposition Zposition Xrotation Yrotation Zrotation
			JOINT LeftFoot
			{
				OFFSET 0.000000 -16.132090 0.000000
				CHANNELS 6 Xposition Yposition Zposition Xrotation Yrotation Zrotation
				JOINT LeftToeBase
				{
					OFFSET 0.000000 -1.705429 6.364750
					CHANNELS 6 Xposition Yposition Zposition Xrotation Yrotation Zrotation
					End Site
					{
						OFFSET 0.000000 0.000000 2.952750
					}
				}
			}
		}
	}
	JOINT RightUpLeg
	{
		OFFSET -3.317160 0.000000 0.000000
		CHANNELS 6 Xposition Yposition Zposition Xrotation Yrotation Zrotation
		JOINT RightLeg
		{
			OFFSET 0.000000 -16.621309 0.000000
			CHANNELS 6 Xposition Yposition Zposition Xrotation Yrotation Zrotation
			JOINT RightFoot
			{
				OFFSET 0.000000 -16.132090 0.000000
				CHANNELS 6 Xposition Yposition Zposition Xrotation Yrotation Zrotation
				JOINT RightToeBase
				{
					OFFSET 0.000000 -1.705429 6.364750
					CHANNELS 6 Xposition Yposition Zposition Xrotation Yrotation Zrotation
					End Site
					{
						OFFSET 0.000000 0.000000 2.952750
					}
				}
			}
		}
	}
	JOINT Spine
	{
		OFFSET 0.000000 0.039370 0.000000
		CHANNELS 6 Xposition Yposition Zposition Xrotation Yrotation Zrotation
		JOINT Spine1
		{
			OFFSET 0.000000 9.216790 0.000000
			CHANNELS 6 Xposition Yposition Zposition Xrotation Yrotation Zrotation
			JOINT Neck
			{
				OFFSET 0.000000 8.819270 0.000000
				CHANNELS 3 Xrotation Yrotation Zrotation
				JOINT Head
				{
					OFFSET 0.000000 6.846361 0.000000
					CHANNELS 6 Xposition Yposition Zposition Xrotation Yrotation Zrotation
					End Site
					{
						OFFSET 0.000000 4.527550 0.000000
					}
				}
			}
			JOINT LeftShoulder
			{
				OFFSET 0.000000 8.819270 0.000000
				CHANNELS 3 Xrotation Yrotation Zrotation
				JOINT LeftArm
				{
					OFFSET 7.313730 -0.000031 0.000000
					CHANNELS 6 Xposition Yposition Zposition Xrotation Yrotation Zrotation
					JOINT LeftForeArm
					{
						OFFSET 10.822620 -0.000040 0.000000
						CHANNELS 6 Xposition Yposition Zposition Xrotation Yrotation Zrotation
						JOINT LeftHand
						{
							OFFSET 10.147810 -0.000040 0.000000
							CHANNELS 6 Xposition Yposition Zposition Xrotation Yrotation Zrotation
							JOINT LeftHandThumb
							{
								OFFSET 0.000000 0.000000 0.000000
								CHANNELS 6 Xposition Yposition Zposition Xrotation Yrotation Zrotation
								End Site
								{
									OFFSET 0.000000 0.000000 3.937000
								}
							}
							JOINT L_Wrist_End
							{
								OFFSET 3.937000 -0.000010 0.000000
								CHANNELS 6 Xposition Yposition Zposition Xrotation Yrotation Zrotation
								End Site
								{
									OFFSET 0.000000 0.100000 0.000000
								}
							}
						}
					}
				}
			}
			JOINT RightShoulder
			{
				OFFSET 0.000000 8.819270 0.000000
				CHANNELS 3 Xrotation Yrotation Zrotation
				JOINT RightArm
				{
					OFFSET -7.313730 -0.000031 0.000000
					CHANNELS 6 Xposition Yposition Zposition Xrotation Yrotation Zrotation
					JOINT RightForeArm
					{
						OFFSET -10.822620 -0.000040 0.000000
						CHANNELS 6 Xposition Yposition Zposition Xrotation Yrotation Zrotation
						JOINT RightHand
						{
							OFFSET -10.147810 -0.000040 0.000000
							CHANNELS 6 Xposition Yposition Zposition Xrotation Yrotation Zrotation
							JOINT RightHandThumb
							{
								OFFSET 0.000000 0.000000 0.000000
								CHANNELS 6 Xposition Yposition Zposition Xrotation Yrotation Zrotation
								End Site
								{
									OFFSET 0.000000 0.000000 3.937000
								}
							}
							JOINT R_Wrist_End
							{
								OFFSET -5.393688 -0.000019 0.000000
								CHANNELS 6 Xposition Yposition Zposition Xrotation Yrotation Zrotation
								End Site
								{
									OFFSET 0.000000 0.100000 0.000000
								}
							}
						}
					}
				}
			}
		}
	}
}
MOTION
Frames: 8
Frame Time: 0.041667
0.001978 34.241310 0.109030 -1.132134 -0.751231 -0.032032 3.317159 0.000013 0.000001 -4.770299 -3.540559 2.583258 -0.000001 -16.621290 -0.000002 16.856833 -0.092560 -1.873916 -0.000007 -16.132053 -0.000112 -10.795415 8.270282 -1.070098 0.000002 -1.705429 6.364748 0.000001 -0.000000 0.000002 -3.317162 0.000012 0.000001 0.519086 7.091163 -6.754947 -0.000002 -16.621317 -0.000001 10.925210 0.221554 1.908415 0.000000 -16.132074 0.000073 -9.132806 -13.347193 5.067308 -0.000003 -1.705434 6.364745 1.895999 1.245887 -0.140266 -0.000000 0.039378 0.000000 0.000012 0.000000 -0.000000 -0.016366 9.139806 0.104030 8.298578 -5.826275 -0.191662 -5.043679 -6.029064 8.290650 -0.000001 6.846348 -0.000002 -5.043793 -6.029012 8.290318 0.773251 -1.813243 -3.818720 7.313722 -0.000018 0.000011 67.699817 -22.390047 -39.057122 10.822601 -0.000043 -0.000008 -0.345228 -94.799057 -0.050477 10.147807 -0.000038 0.000003 0.000001 0.000002 0.000002 0.000005 0.000001 -0.000000 -0.000002 0.000001 0.000001 3.937007 -0.000009 0.000000 0.000001 0.000000 0.000001 1.003591 -2.417791 1.922316 -7.313726 -0.000009 0.000015 66.474331 29.774960 27.729397 -10.822626 -0.000011 0.000008 -0.487193 92.491546 -0.031152 -10.147810 -0.000040 0.000001 0.000000 -0.000002 0.000001 -0.000007 -0.000001 -0.000001 -0.000003 -0.000004 0.000003 -5.393700 -0.000016 -0.000001 0.000002 0.000001 0.000001 
0.002450 34.240986 0.108609 -1.079455 -0.748235 -0.032425 3.317160 0.000012 -0.000001 -4.749360 -3.540241 2.583373 -0.000002 -16.621304 -0.000001 16.825198 -0.092542 -1.874073 -0.000001 -16.132050 -0.000108 -10.837999 8.270693 -1.064855 0.000001 -1.705429 6.364748 0.000001 0.000000 0.000001 -3.317161 0.000004 -0.000001 0.548510 7.088556 -6.758717 0.000000 -16.621330 -0.000000 10.853959 0.218737 1.908758 0.000001 -16.132042 0.000075 -9.142988 -13.364275 5.062569 -0.000001 -1.705434 6.364742 1.897683 1.246974 -0.140393 0.000000 0.039363 0.000001 -0.000021 0.000000 0.000000 -0.016338 9.139849 0.103985 8.277347 -5.816633 -0.190708 -5.045909 -6.028137 8.290192 -0.000000 6.846355 -0.000001 -5.046022 -6.028068 8.289905 0.773514 -1.808323 -3.824955 7.313727 -0.000017 0.000002 67.703075 -22.386005 -39.044852 10.822618 -0.000034 0.000014 -0.345142 -94.808538 -0.050344 10.147816 -0.000040 -0.000001 0.000006 0.000003 -0.000001 0.000005 0.000001 0.000000 -0.000000 0.000003 0.000001 3.937007 -0.000010 0.000000 -0.000000 0.000002 0.000002 1.005087 -2.408980 1.930811 -7.313735 -0.000011 0.000013 66.483033 29.765083 27.729281 -10.822608 -0.000026 0.000016 -0.487790 92.497912 -0.030664 -10.147820 -0.000040 0.000002 -0.000005 -0.000001 -0.000001 -0.000002 0.000002 -0.000000 -0.000005 -0.000001 0.000001 -5.393688 -0.000016 -0.000000 0.000002 -0.000003 -0.000001 
0.002988 34.240715 0.107743 -1.025576 -0.744650 -0.032787 3.317162 0.000005 -0.000000 -4.900148 -3.539078 2.582576 0.000000 -16.621290 0.000002 16.879081 -0.092946 -1.873746 -0.000001 -16.132061 -0.000104 -10.794540 8.268196 -1.068399 0.000002 -1.705429 6.364748 -0.000000 -0.000001 0.000001 -3.317160 0.000007 0.000001 0.369557 7.093858 -6.750792 -0.000003 -16.621328 0.000000 10.968811 0.222307 1.908427 0.000003 -16.132103 0.000080 -9.130779 -13.371525 5.071152 0.000002 -1.705438 6.364740 1.899289 1.248064 -0.140519 0.000000 0.039365 0.000001 -0.000013 0.000000 0.000000 -0.016314 9.139905 0.103938 8.256177 -5.807271 -0.189775 -5.048129 -6.027002 8.289635 0.000001 6.846373 0.000001 -5.048198 -6.026953 8.289365 0.773760 -1.803450 -3.831206 7.313727 -0.000020 0.000009 67.706292 -22.381804 -39.032608 10.822607 -0.000043 -0.000000 -0.344852 -94.817970 -0.050083 10.147817 -0.000039 -0.000001 0.000004 -0.000002 0.000003 0.000002 0.000002 0.000002 -0.000003 0.000000 -0.000001 3.937004 -0.000008 0.000002 0.000001 0.000000 -0.000001 1.006589 -2.400092 1.939266 -7.313733 -0.000022 0.000010 66.491557 29.755149 27.729252 -10.822616 -0.000021 0.000026 -0.488164 92.504414 -0.030167 -10.147813 -0.000042 0.000002 -0.000003 0.000001 0.000004 -0.000002 0.000002 -0.000001 0.000003 -0.000003 0.000000 -5.393692 -0.000017 -0.000000 0.000003 -0.000001 -0.000001 
0.006056 34.240513 0.101751 -0.910771 -0.726050 -0.034272 3.317159 0.000015 0.000000 -5.026666 -3.537603 2.582895 -0.000001 -16.621304 0.000002 16.888828 -0.093188 -1.873653 -0.000004 -16.132053 -0.000105 -10.793453 8.230934 -1.065865 0.000001 -1.705429 6.364748 0.000000 -0.000000 0.000001 -3.317161 0.000005 0.000001 0.252454 7.093927 -6.749718 -0.000002 -16.621298 0.000000 10.964322 0.221983 1.908532 0.000001 -16.132071 0.000084 -9.122612 -13.384418 5.073889 0.000000 -1.705434 6.364740 1.900935 1.249112 -0.140643 -0.000000 0.039371 0.000000 0.000003 -0.000000 -0.000000 -0.016291 9.139908 0.103887 8.234980 -5.797924 -0.188778 -5.049481 -6.017788 8.285598 -0.000002 6.846359 -0.000006 -5.049524 -6.017734 8.285308 0.774019 -1.798572 -3.837460 7.313726 -0.000016 0.000005 67.709509 -22.377740 -39.020386 10.822615 -0.000043 0.000010 -0.345004 -94.827580 -0.050318 10.147806 -0.000040 0.000000 0.000001 -0.000002 -0.000001 0.000004 0.000000 -0.000001 0.000000 -0.000003 -0.000000 3.937004 -0.000010 -0.000000 0.000004 -0.000002 0.000000 1.008078 -2.391250 1.947772 -7.313727 -0.000010 0.000013 66.500136 29.745033 27.729234 -10.822602 -0.000013 0.000004 -0.488743 92.510985 -0.029542 -10.147805 -0.000039 -0.000001 -0.000001 -0.000003 0.000002 -0.000008 0.000002 0.000002 -0.000002 -0.000003 0.000006 -5.393693 -0.000016 0.000002 0.000002 -0.000003 0.000003 
0.012048 34.240574 0.088868 -0.784273 -0.690335 -0.035284 3.317158 0.000016 0.000001 -5.197728 -3.528714 2.578088 -0.000000 -16.621307 -0.000000 16.911108 -0.093090 -1.873492 -0.000007 -16.132065 -0.000104 -10.772611 8.193188 -1.059483 0.000001 -1.705429 6.364748 -0.000001 -0.000001 0.000001 -3.317160 0.000016 0.000001 0.115737 7.081891 -6.754195 0.000001 -16.621326 0.000000 10.956427 0.221810 1.908638 -0.000001 -16.132053 0.000085 -9.101692 -13.396730 5.082958 0.000000 -1.705435 6.364749 1.902589 1.250200 -0.140778 -0.000000 0.039372 0.000001 0.000008 0.000000 -0.000000 -0.016242 9.140237 0.103520 8.199420 -5.784458 -0.186877 -5.050808 -6.008578 8.281563 -0.000001 6.846355 -0.000006 -5.050869 -6.008514 8.281253 0.774252 -1.793703 -3.843728 7.313710 -0.000015 0.000005 67.712747 -22.373577 -39.008177 10.822604 -0.000040 0.000013 -0.344876 -94.837067 -0.050158 10.147810 -0.000040 0.000001 -0.000002 0.000002 0.000001 0.000003 0.000002 0.000001 -0.000001 -0.000004 0.000002 3.937003 -0.000010 -0.000000 -0.000002 0.000003 0.000003 1.009570 -2.382405 1.956220 -7.313732 -0.000017 0.000010 66.508687 29.735140 27.729197 -10.822612 -0.000009 0.000004 -0.488294 92.543155 -0.030062 -10.147806 -0.000039 -0.000001 -0.000000 -0.000003 0.000001 -0.000005 0.000002 0.000000 -0.000001 -0.000003 0.000002 -5.393692 -0.000016 -0.000001 -0.000001 -0.000003 0.000002 
0.018122 34.240608 0.075761 -0.657425 -0.654093 -0.036367 3.317160 -0.000003 0.000001 -5.369065 -3.519650 2.573218 -0.000000 -16.621265 0.000003 16.932217 -0.092979 -1.873330 -0.000004 -16.132067 -0.000104 -10.750730 8.155457 -1.053097 0.000001 -1.705429 6.364748 0.000001 -0.000000 0.000001 -3.317158 -0.000006 0.000001 -0.061922 7.057184 -6.763562 -0.000001 -16.621319 0.000000 10.980054 0.223055 1.908646 0.000002 -16.132063 0.000078 -9.069777 -13.407113 5.101641 0.000003 -1.705438 6.364741 1.904225 1.251267 -0.140903 -0.000000 0.039366 0.000001 0.000021 -0.000000 -0.000000 -0.016194 9.140535 0.103146 8.163393 -5.770817 -0.184916 -5.052119 -5.999354 8.277513 -0.000002 6.846378 0.000001 -5.052206 -5.999294 8.277181 0.774521 -1.788568 -3.850465 7.313727 -0.000040 0.000010 67.724741 -22.357779 -38.963822 10.822604 -0.000035 0.000002 -0.344551 -94.846691 -0.049834 10.147812 -0.000040 -0.000003 0.000002 -0.000006 -0.000001 0.000004 0.000003 0.000000 -0.000000 0.000001 0.000000 3.937004 -0.000010 0.000000 0.000000 0.000001 0.000000 1.011051 -2.373532 1.964767 -7.313723 -0.000015 0.000008 66.545536 29.692721 27.728942 -10.822601 -0.000007 0.000002 -0.489518 92.575230 -0.028733 -10.147815 -0.000040 -0.000002 -0.000005 -0.000003 0.000004 -0.000008 -0.000001 0.000000 0.000001 -0.000003 0.000000 -5.393696 -0.000016 0.000001 0.000001 -0.000001 0.000001 
0.028491 34.240932 0.052605 -0.513651 -0.593105 -0.036773 3.317154 0.000010 0.000002 -5.584556 -3.502479 2.562283 -0.000001 -16.621296 -0.000003 16.961701 -0.092426 -1.873114 -0.000004 -16.132051 -0.000116 -10.710625 8.117358 -1.041755 0.000000 -1.705429 6.364749 -0.000001 -0.000001 0.000001 -3.317154 0.000007 0.000002 -0.220121 7.030598 -6.775318 -0.000002 -16.621296 -0.000002 10.966108 0.223030 1.908785 0.000005 -16.132072 0.000086 -9.036814 -13.419082 5.117891 -0.000001 -1.705433 6.364745 1.905865 1.252342 -0.141033 -0.000000 0.039372 0.000001 -0.000015 -0.000000 0.000000 -0.016144 9.140833 0.102774 8.104885 -5.747208 -0.180919 -5.053472 -5.990163 8.273500 0.000001 6.846373 -0.000006 -5.053575 -5.990099 8.273170 0.776033 -1.770163 -3.878526 7.313736 -0.000020 0.000004 67.736933 -22.341846 -38.918776 10.822606 -0.000041 0.000013 -0.344516 -94.856192 -0.049761 10.147819 -0.000040 -0.000002 -0.000000 -0.000003 0.000002 0.000009 0.000003 -0.000000 -0.000001 0.000003 0.000002 3.937007 -0.000008 0.000001 0.000001 0.000002 0.000003 1.012530 -2.364695 1.973281 -7.313726 -0.000018 0.000005 66.582958 29.649609 27.728645 -10.822618 -0.000014 0.000007 -0.488590 92.607509 -0.029633 -10.147816 -0.000041 -0.000001 0.000001 -0.000001 -0.000000 -0.000005 -0.000000 0.000001 -0.000006 -0.000002 -0.000001 -5.393696 -0.000016 -0.000001 0.000000 0.000001 -0.000000 
0.038860 34.241314 0.029459 -0.369981 -0.532101 -0.037469 3.317157 0.000013 0.000000 -5.797874 -3.485239 2.551504 0.000000 -16.621311 0.000004 16.988603 -0.092077 -1.872947 -0.000003 -16.132069 -0.000112 -10.670688 8.046842 -1.030275 0.000002 -1.705429 6.364749 -0.000002 -0.000000 0.000001 -3.317157 0.000013 -0.000000 -0.374937 7.003678 -6.786709 -0.000001 -16.621313 0.000003 10.947941 0.222472 1.908942 0.000007 -16.132080 0.000089 -9.001744 -13.445085 5.133702 0.000002 -1.705438 6.364742 1.907524 1.253424 -0.141162 0.000000 0.039365 -0.000000 -0.000009 0.000000 -0.000000 -0.016099 9.141126 0.102407 8.020366 -5.711628 -0.174173 -5.050769 -5.972774 8.265733 -0.000001 6.846376 0.000004 -5.050851 -5.972707 8.265460 0.777515 -1.751781 -3.906557 7.313724 -0.000006 0.000002 67.749049 -22.325928 -38.873759 10.822617 -0.000043 0.000019 -0.344067 -94.890589 -0.049275 10.147813 -0.000040 -0.000001 -0.000002 0.000001 0.000002 0.000009 0.000001 0.000000 0.000001 0.000003 0.000003 3.937008 -0.000008 0.000001 0.000001 0.000002 -0.000000 1.014023 -2.355844 1.981715 -7.313733 -0.000038 0.000014 66.620504 29.606708 27.728437 -10.822606 -0.000018 0.000006 -0.490018 92.662724 -0.028199 -10.147808 -0.000038 0.000001 0.000003 0.000001 -0.000000 -0.000001 0.000000 0.000003 -0.000008 0.000003 -0.000004 -5.393692 -0.000016 0.000004 -0.000002 0.000002 -0.000002 
